<?xml version="1.0" encoding="UTF-8"?>
<svg width="16px" height="17px" viewBox="0 0 16 17" version="1.1" xmlns="http://www.w3.org/2000/svg" xmlns:xlink="http://www.w3.org/1999/xlink">
    <title>1.Base基础/3.Icon图标/其他/image-error</title>
    <g id="页面-1" stroke="none" stroke-width="1" fill="none" fill-rule="evenodd">
        <g id="转出" transform="translate(-150, -512)">
            <g id="编组-5" transform="translate(16, 100)">
                <g id="1.Base基础/3.Icon图标/其他/image-error" transform="translate(134, 412.5)">
                    <rect id="image-(Background)" opacity="0" x="0" y="0" width="16" height="16"></rect>
                    <path d="M2,13 L2,8 L3,8 L3,10.2929 L6,7.29289 L11.7071,13 L13,13 L13,3 L8,3 L8,2 L13,2 C13.5523,2 14,2.44772 14,3 L14,13 C14,13.5523 13.5523,14 13,14 L3,14 C2.44772,14 2,13.5523 2,13 Z M6,8.70711 L3,11.70711 L3,13 L10.2929,13 L6,8.70711 Z" id="形状" fill-opacity="0.9" fill="#000000" fill-rule="nonzero"></path>
                    <path d="M12,6 C12,7.10457 11.1046,8 10,8 C8.89543,8 8,7.10457 8,6 C8,4.89543 8.89543,4 10,4 C11.1046,4 12,4.89543 12,6 Z M11,6 C11,5.44772 10.5523,5 10,5 C9.44772,5 9,5.44772 9,6 C9,6.55228 9.44772,7 10,7 C10.5523,7 11,6.55228 11,6 Z" id="形状" fill-opacity="0.9" fill="#000000" fill-rule="nonzero"></path>
                    <polygon id="路径" fill-opacity="0.9" fill="#000000" transform="translate(4.1608, 4.145) rotate(-135) translate(-4.1608, -4.145)" points="6.28208 5.55923 5.57497 6.26634 4.16076 4.85213 2.74654 6.26634 2.03943 5.55923 3.45365 4.14502 2.03943 2.73081 2.74654 2.0237 4.16076 3.43791 5.57497 2.0237 6.28208 2.73081 4.86786 4.14502"></polygon>
                </g>
            </g>
        </g>
    </g>
</svg>