<?xml version="1.0" encoding="UTF-8"?>
<svg width="16px" height="17px" viewBox="0 0 16 17" version="1.1" xmlns="http://www.w3.org/2000/svg" xmlns:xlink="http://www.w3.org/1999/xlink">
    <title>1.Base基础/3.Icon图标/其他/chat</title>
    <g id="页面-1" stroke="none" stroke-width="1" fill="none" fill-rule="evenodd">
        <g id="个人钱兜兜" transform="translate(-335, -541)">
            <g id="编组-14" transform="translate(24, 460)">
                <g id="编组-12" transform="translate(0, 80.2661)">
                    <g id="1.Base基础/3.Icon图标/其他/chat" transform="translate(311, 1)">
                        <rect id="chat-(Background)" opacity="0" x="0" y="0" width="16" height="16"></rect>
                        <path d="M13,10.5 L13,4 L3,4 L3,11.8649588 L4.63795018,10.5 L13,10.5 Z M2,13.3594875 L2,4 C2,3.44771498 2.44771528,3 3,3 L13,3 C13.5522852,3 14,3.44771528 14,4 L14,10.5 C14,11.0522852 13.5522852,11.5 13,11.5 L5,11.5 L2.49205482,13.5899544 C2.29665673,13.7527857 2,13.6138391 2,13.3594875 Z" id="chat" fill-opacity="0.9" fill="#000000"></path>
                    </g>
                </g>
            </g>
        </g>
    </g>
</svg>