<?xml version="1.0" encoding="UTF-8"?>
<svg width="16px" height="17px" viewBox="0 0 16 17" version="1.1" xmlns="http://www.w3.org/2000/svg" xmlns:xlink="http://www.w3.org/1999/xlink">
    <title>1.Base基础/3.Icon图标/其他/heart</title>
    <g id="页面-1" stroke="none" stroke-width="1" fill="none" fill-rule="evenodd">
        <g id="个人钱兜兜" transform="translate(-307, -541)">
            <g id="编组-14" transform="translate(24, 460)">
                <g id="编组-12" transform="translate(0, 80.2661)">
                    <g id="1.Base基础/3.Icon图标/其他/heart" transform="translate(283, 1)">
                        <rect id="heart-(Background)" opacity="0" x="0" y="0" width="16" height="16"></rect>
                        <path d="M6.93611288,4.88132906 C5.42952371,3.50028896 3,4.56904101 3,6.6128304 C3,7.23579741 3.24747312,7.83325052 3.68797767,8.27375507 L8,12.5857773 L12.3120232,8.2737546 C12.7525272,7.83325005 13,7.23579764 13,6.61282992 C13,4.56904078 10.5704765,3.50028884 9.06388712,4.88132942 L8,5.85655856 L6.93611288,4.88132906 Z M2,6.6128304 C2,7.50101423 2.35283017,8.35282087 2.98087096,8.98086166 L7.85429382,13.8542843 C7.93476534,13.9347553 8.06523418,13.9347563 8.1457057,13.8542852 L13.0191298,8.98086119 C13.647171,8.3528204 14,7.50101376 14,6.61282992 C14,3.69893456 10.5361528,2.17518413 8.38816261,4.14417505 L8,4.49999058 L7.61183739,4.14417499 C5.4638474,2.17518395 2,3.69893503 2,6.6128304 Z" id="heart" fill-opacity="0.9" fill="#000000"></path>
                    </g>
                </g>
            </g>
        </g>
    </g>
</svg>