<?xml version="1.0" encoding="UTF-8"?>
<svg width="16px" height="17px" viewBox="0 0 16 17" version="1.1" xmlns="http://www.w3.org/2000/svg" xmlns:xlink="http://www.w3.org/1999/xlink">
    <title>1.Base基础/3.Icon图标/操作/filter</title>
    <g id="页面-1" stroke="none" stroke-width="1" fill="none" fill-rule="evenodd" opacity="0.600000024">
        <g id="个人钱兜兜" transform="translate(-335, -423)">
            <g id="编组-6" transform="translate(303, 421.2661)">
                <g id="1.Base基础/3.Icon图标/操作/filter" transform="translate(32, 2)">
                    <rect id="filter-(Background)" opacity="0" x="0" y="0" width="16" height="16"></rect>
                    <path d="M3,2 L13,2 C13.5522842,2 14,2.4477151 14,3 L14,4.78597307 L9.75,7.28597307 L9.75,14 L6.25,14 L6.25,7.28597307 L2,4.78597307 L2,3 C2,2.44771528 2.44771528,2 3,2 Z M3,3 L3,4.21402693 L7.25,6.71402693 L7.25,13 L8.75,13 L8.75,6.71402693 L13,4.21402669 L13,3 L3,3 Z" id="filter" fill-opacity="0.9" fill="#000000"></path>
                </g>
            </g>
        </g>
    </g>
</svg>