<?xml version="1.0" encoding="UTF-8"?>
<svg width="25px" height="25px" viewBox="0 0 25 25" version="1.1" xmlns="http://www.w3.org/2000/svg" xmlns:xlink="http://www.w3.org/1999/xlink">
    <title>圈子</title>
    <g id="页面-1" stroke="none" stroke-width="1" fill="none" fill-rule="evenodd">
        <g id="钱兜兜2" transform="translate(-269, -787)" fill-rule="nonzero">
            <g id="圈子" transform="translate(269, 787)">
                <path d="M12.5,0 C19.40332,0 25,5.59666667 25,12.5 C25.0037167,15.6763932 23.793604,18.7341705 21.6172074,21.0477778 L23.9933168,23.8211111 C24.3894277,24.285 24.0599835,25 23.4499839,25 L12.5,25 C5.59666283,25 0,19.4038889 0,12.5 C0,5.59666667 5.59666283,0 12.5,0 Z M12.8007022,6 C9.04476348,6 6,9.04476557 6,12.8 C6,16.5559414 9.04476345,19.6 12.8007022,19.6 C16.556236,19.6 19.6006976,16.5555363 19.6006976,12.8 C19.6006976,9.0444637 16.556236,6 12.8007022,6 Z" id="形状结合" fill="#366FF9"></path>
                <polygon id="路径" fill="#EEC8A1" points="8 13.2657948 12.767964 18.0337588 17.535928 13.2657948 12.767964 8.5"></polygon>
            </g>
        </g>
    </g>
</svg>