<?xml version="1.0" encoding="UTF-8"?>
<svg width="52px" height="47px" viewBox="0 0 52 47" version="1.1" xmlns="http://www.w3.org/2000/svg" xmlns:xlink="http://www.w3.org/1999/xlink">
    <title>证件,工作证,身份,员工,人员卡,工牌</title>
    <defs>
        <path d="M17.0860544,25.0370082 C18.1646611,24.07388 18.8408027,22.6582755 18.8150449,21.0875362 C18.7699688,18.2498631 16.4227917,15.9648576 13.5990959,16.0004093 C10.7850592,16.035961 8.51515546,18.3371264 8.51515546,21.1715675 C8.51515546,22.709987 9.18485755,24.0932719 10.2473657,25.0402402 C10.3697151,25.1501273 10.3600559,25.3408138 10.2312671,25.441005 C8.87576428,26.4817005 8,28.1203113 8,29.9657684 C8,30.5378277 8.46042019,31 9.03031091,31 L18.3031091,31 C18.8729999,31 19.3334201,30.5378277 19.3334201,29.9657684 C19.3334201,28.1203113 18.4576558,26.4817005 17.102153,25.441005 C16.9701444,25.3375818 16.963705,25.1468953 17.0860544,25.0370082 L17.0860544,25.0370082 Z M36.656563,19.8954233 L23.6059581,19.8954233 C23.4170678,19.8954233 23.2625211,19.7402886 23.2625211,19.5506794 L23.2625211,17.4822162 C23.2625211,17.292607 23.4170678,17.1374723 23.6059581,17.1374723 L36.656563,17.1374723 C36.8454534,17.1374723 37,17.292607 37,17.4822162 L37,19.5506794 C37,19.7402886 36.8454534,19.8954233 36.656563,19.8954233 Z M36.656563,25.4113254 L23.6059581,25.4113254 C23.4170678,25.4113254 23.2625211,25.2561906 23.2625211,25.0665815 L23.2625211,22.9981182 C23.2625211,22.8085091 23.4170678,22.6533743 23.6059581,22.6533743 L36.656563,22.6533743 C36.8454534,22.6533743 37,22.8085091 37,22.9981182 L37,25.0665815 C37,25.2561906 36.8454534,25.4113254 36.656563,25.4113254 Z M36.656563,30.9272274 L23.6059581,30.9272274 C23.4170678,30.9272274 23.2625211,30.7720927 23.2625211,30.5824835 L23.2625211,28.5140203 C23.2625211,28.3244111 23.4170678,28.1692764 23.6059581,28.1692764 L36.656563,28.1692764 C36.8454534,28.1692764 37,28.3244111 37,28.5140203 L37,30.5824835 C37,30.7720927 36.8454534,30.9272274 36.656563,30.9272274 Z" id="path-1"></path>
        <filter x="-24.1%" y="-33.3%" width="148.3%" height="193.3%" filterUnits="objectBoundingBox" id="filter-2">
            <feOffset dx="0" dy="2" in="SourceAlpha" result="shadowOffsetOuter1"></feOffset>
            <feGaussianBlur stdDeviation="2" in="shadowOffsetOuter1" result="shadowBlurOuter1"></feGaussianBlur>
            <feColorMatrix values="0 0 0 0 0.996078431   0 0 0 0 0.88627451   0 0 0 0 0.549019608  0 0 0 0.678815081 0" type="matrix" in="shadowBlurOuter1"></feColorMatrix>
        </filter>
        <path d="M26.8125,5.47368421 L26.8125,2.73684211 C26.8125,1.22730263 25.5792969,0 24.0625,0 L19.9375,0 C18.4207031,0 17.1875,1.22730263 17.1875,2.73684211 L17.1875,5.47368421 C17.1875,5.85 16.878125,6.15789474 16.5,6.15789474 L2.75,6.15789474 C1.23320312,6.15789474 0,7.38519737 0,8.89473684 L0,36.2631579 C0,37.7726974 1.23320312,39 2.75,39 L41.25,39 C42.7667969,39 44,37.7726974 44,36.2631579 L44,8.89473684 C44,7.38519737 42.7667969,6.15789474 41.25,6.15789474 L27.5,6.15789474 C27.121875,6.15789474 26.8125,5.85 26.8125,5.47368421 Z M20.625,2.73684211 L23.375,2.73684211 C23.753125,2.73684211 24.0625,3.04473684 24.0625,3.42105263 L24.0625,8.89473684 C24.0625,9.27105263 23.753125,9.57894737 23.375,9.57894737 L20.625,9.57894737 C20.246875,9.57894737 19.9375,9.27105263 19.9375,8.89473684 L19.9375,3.42105263 C19.9375,3.04473684 20.246875,2.73684211 20.625,2.73684211 Z M40.5625,36.2631579 L3.4375,36.2631579 C3.059375,36.2631579 2.75,35.9552632 2.75,35.5789474 L2.75,9.57894737 C2.75,9.20263158 3.059375,8.89473684 3.4375,8.89473684 L16.5,8.89473684 C16.878125,8.89473684 17.1875,9.20263158 17.1875,9.57894737 L17.1875,10.2631579 C17.1875,11.3963816 18.1113281,12.3157895 19.25,12.3157895 L24.75,12.3157895 C25.8886719,12.3157895 26.8125,11.3963816 26.8125,10.2631579 L26.8125,9.57894737 C26.8125,9.20263158 27.121875,8.89473684 27.5,8.89473684 L40.5625,8.89473684 C40.940625,8.89473684 41.25,9.20263158 41.25,9.57894737 L41.25,35.5789474 C41.25,35.9552632 40.940625,36.2631579 40.5625,36.2631579 Z" id="path-3"></path>
        <filter x="-15.9%" y="-12.8%" width="131.8%" height="135.9%" filterUnits="objectBoundingBox" id="filter-4">
            <feOffset dx="0" dy="2" in="SourceAlpha" result="shadowOffsetOuter1"></feOffset>
            <feGaussianBlur stdDeviation="2" in="shadowOffsetOuter1" result="shadowBlurOuter1"></feGaussianBlur>
            <feColorMatrix values="0 0 0 0 0.996078431   0 0 0 0 0.88627451   0 0 0 0 0.549019608  0 0 0 0.678815081 0" type="matrix" in="shadowBlurOuter1"></feColorMatrix>
        </filter>
    </defs>
    <g id="页面-1" stroke="none" stroke-width="1" fill="none" fill-rule="evenodd">
        <g id="情侣攒钱" transform="translate(-280, -422)" fill-rule="nonzero">
            <g id="证件,工作证,身份,员工,人员卡,工牌" transform="translate(284, 424)">
                <g id="形状">
                    <use fill="black" fill-opacity="1" filter="url(#filter-2)" xlink:href="#path-1"></use>
                    <use fill="#FEE188" xlink:href="#path-1"></use>
                </g>
                <g id="形状">
                    <use fill="black" fill-opacity="1" filter="url(#filter-4)" xlink:href="#path-3"></use>
                    <use fill="#FEE188" xlink:href="#path-3"></use>
                </g>
            </g>
        </g>
    </g>
</svg>