<?xml version="1.0" encoding="UTF-8"?>
<svg width="14px" height="16px" viewBox="0 0 14 16" version="1.1" xmlns="http://www.w3.org/2000/svg" xmlns:xlink="http://www.w3.org/1999/xlink">
    <title>提醒</title>
    <g id="页面-1" stroke="none" stroke-width="1" fill="none" fill-rule="evenodd">
        <g id="情侣攒钱详情" transform="translate(-265, -157)" fill="#FFFFFF" fill-rule="nonzero">
            <g id="提醒" transform="translate(265, 157)">
                <path d="M12.2962963,9.53990611 L12.2962963,6.57276995 C12.2962963,3.98122066 10.5925926,1.76525822 8.18518519,1.20187792 C8,0.488262891 7.37037038,0 6.66666667,0 C5.92592593,0 5.29629629,0.563380277 5.14814814,1.27699531 C2.88888888,1.95305165 1.29629629,4.1314554 1.29629629,6.57276995 L1.29629629,9.35211268 C0.493289439,9.86384031 0.00422116031,10.7565621 0,11.7183099 L0,11.7558686 C0,12.1314554 0.0740740723,12.5070423 0.222222217,12.8450704 L0.259259261,12.8826291 C0.370370378,13.1455399 0.592592594,13.3333333 0.851851855,13.4084507 C0.925925928,13.4460094 1.03703704,13.4460094 1.18518519,13.4460094 L12.1851852,13.4460094 C12.2592593,13.4460094 12.3333333,13.4460094 12.4074074,13.4084507 C12.7407407,13.370892 13,13.1455399 13.1111111,12.8826291 C13.2592593,12.5446009 13.3333333,12.1314554 13.3333333,11.7558686 L13.3333333,11.7183099 C13.3333333,10.8544601 12.962963,10.0657277 12.2962963,9.53990611 L12.2962963,9.53990611 Z M7.92592593,14.3098592 L5,14.3098592 C5,15.2488263 5.74074074,16 6.66666667,16 C7.59259259,16 8.33333333,15.2488263 8.33333333,14.3098592 L7.92592593,14.3098592 Z" id="形状"></path>
            </g>
        </g>
    </g>
</svg>