<?xml version="1.0" encoding="UTF-8"?>
<svg width="12px" height="12px" viewBox="0 0 12 12" version="1.1" xmlns="http://www.w3.org/2000/svg" xmlns:xlink="http://www.w3.org/1999/xlink">
    <title>形状</title>
    <g id="页面-1" stroke="none" stroke-width="1" fill="none" fill-rule="evenodd">
        <g id="情侣攒钱详情" transform="translate(-83, -550)" fill="#4D81FF" fill-rule="nonzero">
            <g id="编组-8" transform="translate(24, 452)">
                <g id="编组-12" transform="translate(47, 89.5)">
                    <g id="语音" transform="translate(12, 8.5)">
                        <path d="M0.857142863,3.42853394 C1.08447128,3.42853394 1.30248893,3.51883882 1.46323439,3.67958253 C1.62397986,3.84032624 1.71428573,4.05834149 1.71428573,4.28566743 L1.71428573,7.71420135 C1.71428573,8.1875831 1.33052979,8.57133484 0.857142863,8.57133484 C0.383755931,8.57133484 0,8.1875831 0,7.71420135 L0,4.28566743 C0,3.81228567 0.383755931,3.42853394 0.857142863,3.42853394 L0.857142863,3.42853394 Z M4.28571429,0 C4.75910122,0 5.14285715,0.383751743 5.14285715,0.85713349 L5.14285715,11.1427353 C5.14290402,11.4489908 4.97954377,11.7320027 4.7143236,11.885144 C4.44910342,12.0382853 4.12232515,12.0382853 3.85710497,11.885144 C3.5918848,11.7320027 3.42852455,11.4489908 3.42857142,11.1427353 L3.42857142,0.85713349 C3.42857142,0.629807554 3.5188773,0.411792297 3.67962276,0.251048587 C3.84036823,0.0903048763 4.05838587,0 4.28571429,0 L4.28571429,0 Z M7.71428571,2.14283371 C8.18767264,2.14283371 8.57142858,2.52658545 8.57142858,2.9999672 L8.57142858,8.99990157 C8.57147545,9.30615713 8.4081152,9.58916899 8.14289503,9.7423103 C7.87767485,9.89545161 7.55089658,9.89545161 7.2856764,9.7423103 C7.02045623,9.58916899 6.85709598,9.30615713 6.85714285,8.99990157 L6.85714285,2.9999672 C6.85714285,2.52658546 7.24089878,2.14283371 7.71428571,2.14283371 Z M11.1428571,3.42853394 C11.3701856,3.42853394 11.5882032,3.51883882 11.7489487,3.67958253 C11.9096941,3.84032624 12,4.05834149 12,4.28566743 L12,8.1427681 C12,8.61614986 11.6162441,8.99990159 11.1428571,8.99990159 C10.6694702,8.99990159 10.2857143,8.61614986 10.2857143,8.1427681 L10.2857143,4.28566743 C10.2857143,3.81228567 10.6694702,3.42853394 11.1428571,3.42853394 L11.1428571,3.42853394 Z" id="形状"></path>
                    </g>
                </g>
            </g>
        </g>
    </g>
</svg>