<?xml version="1.0" encoding="UTF-8"?>
<svg width="14px" height="15px" viewBox="0 0 14 15" version="1.1" xmlns="http://www.w3.org/2000/svg" xmlns:xlink="http://www.w3.org/1999/xlink">
    <title>查找</title>
    <g id="页面-1" stroke="none" stroke-width="1" fill="none" fill-rule="evenodd">
        <g id="情侣攒钱详情" transform="translate(-156, -763)" fill="#FD6300" fill-rule="nonzero">
            <g id="编组-19" transform="translate(142, 755.4143)">
                <g id="查找" transform="translate(14, 8)">
                    <path d="M12.3314631,11.5360803 C13.4106171,10.2713222 14.0023308,8.66257917 14,7 C14,3.13405885 10.8658499,0 6.99994359,0 C3.13403724,0 0,3.13405885 0,7 C0,10.8659248 3.13403724,14 6.99994359,14 C8.66251944,14.0024273 10.2712514,13.4107096 11.5360008,12.3315481 L13.0395824,13.8351401 C13.181706,13.9772647 13.3888556,14.0327706 13.583,13.9807495 C13.7771444,13.9287283 13.9287885,13.7770832 13.9808093,13.5829374 C14.0328301,13.3887917 13.9773246,13.1816406 13.835201,13.0395161 L12.3314631,11.5360803 Z M6.99994359,12.874985 C3.76387592,12.874985 1.14061581,10.2446756 1.14061581,6.99999185 C1.14061581,3.75530813 3.76387592,1.12499869 6.99994359,1.12499869 C10.2360113,1.12499869 12.8592714,3.75530813 12.8592714,6.99999185 C12.8592714,10.2446756 10.2360113,12.874985 6.99994359,12.874985 Z" id="形状"></path>
                    <path d="M10.738084,8.95947564 C10.4846614,8.78140781 10.1354328,8.84322941 9.95796884,9.09757418 L9.94629746,9.11319618 C9.93353675,9.13131771 9.92062042,9.1491268 9.90754847,9.16709211 C9.90583667,9.16943541 9.90412486,9.17193493 9.90225744,9.17427823 C9.60087861,9.5838666 9.21639376,9.92463312 8.7741795,10.1740866 C8.69315418,10.2200153 8.61015768,10.2629238 8.52519003,10.302812 C8.34377666,10.38773 8.22127255,10.5633546 8.20382383,10.7635296 C8.1863751,10.9637046 8.27663262,11.1580187 8.44059726,11.2732757 C8.6045619,11.3885326 8.81732352,11.4072222 8.99873688,11.3223041 C9.57554485,11.0513525 10.0922531,10.6668386 10.5181952,10.1915833 L10.5415379,10.1651821 C10.5550767,10.1495601 10.5686155,10.1339381 10.5818431,10.1190972 C10.6858371,9.99832176 10.7836901,9.87235216 10.8750282,9.74166951 L10.8761175,9.74260683 C11.0534042,9.48808256 10.9916071,9.13747775 10.738084,8.95947564 L10.738084,8.95947564 Z M6.36365014,2.31199942 C4.26000031,2.5960075 2.59488319,4.26787464 2.3119689,6.37965748 C2.27037119,6.68754038 2.48527676,6.97098076 2.79197392,7.0127393 C3.09867109,7.05449783 3.38101987,6.8387614 3.42261758,6.5308785 C3.64142945,4.91637767 4.90617242,3.64668111 6.51444439,3.42694202 C6.82114156,3.38514035 7.03601229,3.101665 6.99437161,2.7937821 C6.95273092,2.4858992 6.67034731,2.27019775 6.36365014,2.31199942 L6.36365014,2.31199942 Z" id="形状"></path>
                </g>
            </g>
        </g>
    </g>
</svg>