<?xml version="1.0" encoding="UTF-8"?>
<svg width="24px" height="18px" viewBox="0 0 24 18" version="1.1" xmlns="http://www.w3.org/2000/svg" xmlns:xlink="http://www.w3.org/1999/xlink">
    <title>显示</title>
    <g id="页面-1" stroke="none" stroke-width="1" fill="none" fill-rule="evenodd" fill-opacity="0.24">
        <g id="登录页" transform="translate(-325, -415)" fill="#000000" fill-rule="nonzero">
            <g id="显示" transform="translate(325, 415)">
                <path d="M23.8410459,8.26285911 C21.231722,2.76621366 17.2874591,0 12,0 C6.70978841,0 2.768278,2.76621366 0.158954068,8.26561156 C-0.0529846895,8.71150869 -0.0529846895,9.23447445 0.158954068,9.68312403 C2.768278,15.1797695 6.71254086,17.9459831 12,17.9459831 C17.2902116,17.9459831 21.231722,15.1797695 23.8410459,9.68037158 C24.0529847,9.23447445 24.0529847,8.71701359 23.8410459,8.26285911 Z M12,15.9642181 C7.56029589,15.9642181 4.30965078,13.7127129 2.01685876,8.97299157 C4.30965078,4.23327026 7.56029589,1.98176501 12,1.98176501 C16.4397041,1.98176501 19.6903492,4.23327026 21.9831412,8.97299157 C19.6931017,13.7127129 16.4424566,15.9642181 12,15.9642181 Z" id="形状"></path>
                <path d="M11.8899019,4.1286771 C9.21451918,4.1286771 7.04558748,6.29760881 7.04558748,8.97299157 C7.04558748,11.6483743 9.21451918,13.817306 11.8899019,13.817306 C14.5652847,13.817306 16.7342164,11.6483743 16.7342164,8.97299157 C16.7342164,6.29760881 14.5652847,4.1286771 11.8899019,4.1286771 Z M11.8899019,12.0557371 C10.1861345,12.0557371 8.80715637,10.676759 8.80715637,8.97299157 C8.80715637,7.26922415 10.1861345,5.890246 11.8899019,5.890246 C13.5936694,5.890246 14.9726475,7.26922415 14.9726475,8.97299157 C14.9726475,10.676759 13.5936694,12.0557371 11.8899019,12.0557371 Z" id="形状"></path>
            </g>
        </g>
    </g>
</svg>