<?xml version="1.0" encoding="UTF-8"?>
<svg width="17px" height="16px" viewBox="0 0 17 16" version="1.1" xmlns="http://www.w3.org/2000/svg" xmlns:xlink="http://www.w3.org/1999/xlink">
    <title>1.Base基础/3.Icon图标/操作/add-circle</title>
    <g id="页面-1" stroke="none" stroke-width="1" fill="none" fill-rule="evenodd">
        <g id="主页" transform="translate(-121, -281)">
            <g id="编组-3" transform="translate(16, 256)">
                <g id="编组-2" transform="translate(105.4584, 22)">
                    <g id="1.Base基础/3.Icon图标/操作/add-circle" transform="translate(0, 3)">
                        <rect id="add-circle-(Background)" opacity="0" x="0" y="0" width="16" height="16"></rect>
                        <path d="M4.5,8.5 L4.5,7.5 L7.5,7.5 L7.5,4.5 L8.5,4.5 L8.5,7.5 L11.5,7.5 L11.5,8.5 L8.5,8.5 L8.5,11.5 L7.5,11.5 L7.5,8.5 L4.5,8.5 Z M15,8 C15,4.13400674 11.8659935,1 8,1 C4.13400674,1 1,4.13400674 1,8 C1,11.8659935 4.13400674,15 8,15 C11.8659935,15 15,11.8659935 15,8 Z M14,8 C14,4.68629146 11.3137083,2 8,2 C4.68629146,2 2,4.68629146 2,8 C2,11.3137083 4.68629146,14 8,14 C11.3137083,14 14,11.3137083 14,8 Z" id="add-circle" fill-opacity="0.9" fill="#000000"></path>
                    </g>
                </g>
            </g>
        </g>
    </g>
</svg>