<?xml version="1.0" encoding="UTF-8"?>
<svg width="24px" height="24px" viewBox="0 0 24 24" version="1.1" xmlns="http://www.w3.org/2000/svg" xmlns:xlink="http://www.w3.org/1999/xlink">
    <title>钱袋子</title>
    <g id="页面-1" stroke="none" stroke-width="1" fill="none" fill-rule="evenodd">
        <g id="主页" transform="translate(-82, -725)" fill-rule="nonzero">
            <g id="钱袋子" transform="translate(82, 725)">
                <path d="M6.5194808,4.79481145 C6.5194808,4.79481145 8.91774366,6.78164966 12,6.78164966 C15.0822563,6.78164966 17.54909,4.79481145 17.54909,4.79481145 C17.54909,4.79481145 20.2199217,2.39654859 18.8502204,1.36970123 C17.4788049,0.341139606 15.4251102,1.71255511 15.4251102,1.71255511 C15.4251102,1.71255511 13.8479824,0 12,0 C10.1503033,0 8.64346056,1.71255511 8.64346056,1.71255511 C8.64346056,1.71255511 6.58805158,0.341139606 5.21835034,1.36970123 C3.84864911,2.39826286 6.52119507,4.79481145 6.52119507,4.79481145 L6.5194808,4.79481145 Z M23.3707488,18.0152569 C23.3707488,18.0152569 24.2621689,15.4112817 22.2050456,11.1650365 C20.0142093,6.71307888 17.0690945,6.64450811 17.0690945,6.64450811 C17.0690945,6.64450811 14.876544,8.01420934 12,8.01420934 C9.12345598,8.01420934 6.99947623,6.64279384 6.99947623,6.64279384 C6.99947623,6.64279384 3.98579066,6.64279384 1.79324013,11.2336072 C-0.191883812,15.3427109 0.62925122,18.0838277 0.62925122,18.0838277 C0.62925122,18.0838277 -4.02841868,23.9740572 12,23.9740572 C28.0284187,23.9740572 23.3707488,18.0152569 23.3707488,18.0152569 Z M11.9314292,21.5089379 C8.71203133,21.5089379 6.10977042,18.9049627 6.10977042,15.7541356 C6.10977042,12.6033085 8.71203133,10.0010475 11.9314292,10.0010475 C15.1508271,10.0010475 17.753088,12.6033085 17.753088,15.7541356 C17.753088,18.9049627 15.1508271,21.5089379 11.9314292,21.5089379 Z" id="形状" fill="#366FF9"></path>
                <polygon id="路径" fill="#EEC8A1" points="8.30060668 15.4798525 12.0685708 19.2478166 15.8365349 15.4798525 12.0685708 11.7136027"></polygon>
            </g>
        </g>
    </g>
</svg>