<?xml version="1.0" encoding="UTF-8"?>
<svg width="17px" height="16px" viewBox="0 0 17 16" version="1.1" xmlns="http://www.w3.org/2000/svg" xmlns:xlink="http://www.w3.org/1999/xlink">
    <title>路径</title>
    <g id="页面-1" stroke="none" stroke-width="1" fill="none" fill-rule="evenodd">
        <g id="主页" transform="translate(-281, -116)" fill="#FFFFFF" fill-rule="nonzero">
            <g id="编组-4" transform="translate(16, 100)">
                <g id="编组" transform="translate(265.9, 16)">
                    <path d="M8.45298254,13.0758761 C8.42918619,13.2493384 8.48649119,13.4241451 8.60782472,13.548216 L8.61258763,13.5520887 C8.71804371,13.664329 8.86383309,13.7279419 9.01633174,13.7282561 C9.19207083,13.7282561 9.34216585,13.6411607 9.44571991,13.514342 L15.0373392,7.29438001 C15.150192,7.17963984 15.2090429,7.02091381 15.1988369,6.85880655 C15.2091679,6.69668024 15.1502982,6.53790328 15.0373392,6.42323309 L9.41436666,0.168432906 C9.19032681,-0.0561443019 8.83091829,-0.0561443019 8.60687844,0.168432906 C8.48614024,0.292847378 8.42923599,0.467504802 8.45298254,0.640788911 L8.45298254,4.00921189 C3.78475437,4.00921189 0,7.84804649 0,12.5851208 C-0.00032119917,13.7605372 0.238395129,14.9232713 0.70109566,16 C1.36799892,12.4283169 4.72904245,9.7151985 8.44348825,9.7151985 L8.45298254,13.0758761 Z" id="路径"></path>
                </g>
            </g>
        </g>
    </g>
</svg>