<?xml version="1.0" encoding="UTF-8"?>
<svg width="21px" height="19px" viewBox="0 0 21 19" version="1.1" xmlns="http://www.w3.org/2000/svg" xmlns:xlink="http://www.w3.org/1999/xlink">
    <title>编组</title>
    <g id="页面-1" stroke="none" stroke-width="1" fill="none" fill-rule="evenodd">
        <g id="个人主详情" transform="translate(-238, -522)" fill="#FF5253" fill-rule="nonzero">
            <g id="编组" transform="translate(238, 522)">
                <path d="M20.9319862,5.38560864 C20.4959459,2.18272705 17.7510689,0 14.8422167,0 C13.9504811,0 13.0432286,0.205269747 12.1824789,0.649115496 C11.5782533,0.960596544 11.0365769,1.40149266 10.4332655,1.80436312 C10.4329287,1.80416649 10.3940038,1.7729987 10.3581583,1.73843887 C9.16989119,0.593441221 7.66226215,0.00277757895 6.13745615,0.00277757895 C5.08720638,0.00277757895 4.02863273,0.282967951 3.06073143,0.85524556 C0.836721193,2.17112518 -0.346999025,4.76380181 0.0897630395,7.3511937 C0.340922284,8.83810279 1.04859471,10.0671403 2.07177991,11.1216335 C4.00452724,13.1132244 7.34634042,16.5503067 9.18738093,18.4407991 C9.5505514,18.8137062 10.0257813,19 10.500987,19 C10.9755433,19 11.4500273,18.8144436 11.8130294,18.4427164 C13.7029786,16.5076846 17.1796576,12.9335428 19.1856116,10.816912 C20.6005956,9.32383328 21.2170423,7.47974845 20.9319862,5.38560864 Z" id="路径"></path>
            </g>
        </g>
    </g>
</svg>