<?xml version="1.0" encoding="UTF-8"?>
<svg width="20px" height="20px" viewBox="0 0 20 20" version="1.1" xmlns="http://www.w3.org/2000/svg" xmlns:xlink="http://www.w3.org/1999/xlink">
    <title>编组</title>
    <g id="页面-1" stroke="none" stroke-width="1" fill="none" fill-rule="evenodd">
        <g id="个人主详情" transform="translate(-302, -521)" fill="#666666" fill-rule="nonzero">
            <g id="编组" transform="translate(302, 521)">
                <path d="M10.01182,20 C9.63684347,20 9.25770055,19.9791673 8.87647442,19.9375018 C4.64132296,19.4770988 0.612408585,15.5188824 0.0811918494,11.2960905 C-0.310450293,8.1815992 0.726984743,5.13168932 2.92893019,2.92967105 C5.12879243,0.727652781 8.18068466,-0.311899836 11.295073,0.0818385302 C15.5114756,0.613072834 19.4674779,4.63587064 19.9361985,8.86491235 C20.1882661,11.1460949 19.6903806,13.3564463 18.4967053,15.2751396 C18.7487729,16.1938625 19.4549787,18.6292072 19.4549787,18.6292072 C19.5216412,18.8625336 19.4570619,19.1146095 19.2862392,19.2854378 C19.1154166,19.4562661 18.863349,19.5229308 18.6300303,19.4541828 C18.6300303,19.4541828 16.1885165,18.7479537 15.2864897,18.489628 C13.6886731,19.4875151 11.8867026,20 10.01182,20 Z M10.0055704,1.33388487 C7.7036312,1.33388487 5.51418497,2.22969173 3.87053789,3.87130989 C1.96232405,5.77958684 1.06238041,8.425342 1.40402568,11.1294288 C1.85608071,14.7230726 5.41627443,18.2208859 9.02229862,18.612541 C11.059671,18.8354511 13.0282978,18.3687982 14.7198585,17.2688307 C14.940678,17.1250849 15.217744,17.0855028 15.4781444,17.1584173 C15.8802025,17.2729972 16.9759672,17.5896546 17.8384132,17.8396472 C17.5884289,16.9709228 17.271782,15.8626222 17.1592891,15.4438846 C17.0926266,15.1918087 17.1363739,14.9230667 17.2801149,14.7043231 C18.3737964,13.016873 18.8341842,11.0481812 18.6091983,9.01282464 C18.2133897,5.41084774 14.7156921,1.85678609 11.1284167,1.40471611 C10.7534402,1.35680086 10.3763805,1.33388487 10.0055704,1.33388487 L10.0055704,1.33388487 Z M18.4423372,15.4568021 C18.4423372,15.4668021 18.4323372,15.4668021 18.4323372,15.4768021 C18.4423372,15.4768021 18.4423372,15.4668021 18.4423372,15.4568021 Z" id="形状"></path>
                <path d="M6,11 C5.44791667,11 5,10.5520833 5,10 C5,9.44791667 5.44791667,9 6,9 C6.55208333,9 7,9.44791667 7,10 C7,10.5520833 6.55,11 6,11 Z M10,11 C9.44791667,11 9,10.5520833 9,10 C9,9.44791667 9.44791667,9 10,9 C10.5520833,9 11,9.44791667 11,10 C11,10.5520833 10.55,11 10,11 Z M14,11 C13.4479167,11 13,10.5520833 13,10 C13,9.44791667 13.4479167,9 14,9 C14.5520833,9 15,9.44791667 15,10 C15,10.5520833 14.55,11 14,11 Z" id="形状"></path>
            </g>
        </g>
    </g>
</svg>