<?xml version="1.0" encoding="UTF-8"?>
<svg width="20px" height="17px" viewBox="0 0 20 17" version="1.1" xmlns="http://www.w3.org/2000/svg" xmlns:xlink="http://www.w3.org/1999/xlink">
    <title>编组</title>
    <g id="页面-1" stroke="none" stroke-width="1" fill="none" fill-rule="evenodd">
        <g id="个人主详情" transform="translate(-238, -729)" fill="#666666" fill-rule="nonzero">
            <g id="编组" transform="translate(238, 729)">
                <path d="M9.99641704,17 C9.39448224,17 8.78896452,16.7295787 8.19061266,16.1193035 L1.5478323,9.26741186 C0.752418483,8.25515908 0,7.29772142 0,5.44131557 C0,2.44110061 2.39340738,0.00365436112 5.33142241,0.00365436112 C6.43855247,0.00365436112 7.49910425,0.347162521 8.39842349,0.993981104 C8.69939088,1.2095873 8.77104978,1.63349098 8.55965603,1.94045575 C8.34826225,2.24742049 7.93264063,2.32050733 7.63167322,2.10490115 C6.95807952,1.61887363 6.1626657,1.36306969 5.33142241,1.36306969 C3.12432819,1.36306969 1.3328556,3.19389513 1.3328556,5.44131559 C1.3328556,6.74591576 1.75564313,7.35619092 2.56538874,8.38671542 L9.14009315,15.1582116 C9.47330704,15.4980654 9.74202795,15.633276 10,15.6369304 C10.2651379,15.6405847 10.5195271,15.5053741 10.8634898,15.1545572 L17.4596919,8.35748066 C18.0007166,7.75816854 18.6671444,6.74591574 18.6671444,5.43766123 C18.6671444,3.18658643 16.8720888,1.35941532 14.6685776,1.35941532 C13.6689359,1.35941532 12.7087066,1.7394669 11.9706199,2.42648325 L9.17950556,5.27687017 C8.91795056,5.54363715 8.49874598,5.54363715 8.23719098,5.27687017 C7.97563598,5.01010319 7.97563598,4.58254515 8.23719098,4.31577817 L11.0498029,1.44346518 C12.0566105,0.504299242 13.335722,0 14.6685776,0 C17.6101756,0 20,2.44110061 20,5.43766121 C20,7.18809114 19.1436761,8.50365434 18.4235041,9.2966466 L11.8058044,16.1156492 C11.2038696,16.7295787 10.6019348,17 9.99641704,17 Z" id="路径"></path>
            </g>
        </g>
    </g>
</svg>